<svg preserveAspectRatio="none" width="100%" height="100%" overflow="visible" style="display: block;" viewBox="0 0 27.4142 21.4142" fill="none" xmlns="http://www.w3.org/2000/svg">
<path id="Vector 9" d="M1.41421 10.7071L0.707107 10L0 10.7071L0.707107 11.4142L1.41421 10.7071ZM26.4142 11.7071C26.9665 11.7071 27.4142 11.2594 27.4142 10.7071C27.4142 10.1548 26.9665 9.70711 26.4142 9.70711V10.7071V11.7071ZM11.4142 0.707107L10.7071 0L0.707107 10L1.41421 10.7071L2.12132 11.4142L12.1213 1.41421L11.4142 0.707107ZM1.41421 10.7071L0.707107 11.4142L10.7071 21.4142L11.4142 20.7071L12.1213 20L2.12132 10L1.41421 10.7071ZM1.41421 10.7071V11.7071H26.4142V10.7071V9.70711H1.41421V10.7071Z" fill="var(--stroke-0, #FFFDF4)"/>
</svg>
